<svg xmlns="http://www.w3.org/2000/svg" viewBox="-335.656 -453.726 1682 1407.451" width="1682" height="1407.451">
  <g id="exzpcD0iVqC2" transform="matrix(1, 0, 0, 1, -397.47467, -543.010742)">
    <g id="exzpcD0iVqC3" transform="matrix(1 0 0 1 0.000001 0)">
      <g id="exzpcD0iVqC4" transform="matrix(1 0 0 1 0.000001 0)">
        <g id="exzpcD0iVqC5" transform="matrix(1 0 0 1 0.000001 0)">
          <path id="exzpcD0iVqC6" d="M1523.21241,950.71513C1542.751928,887.180875,1552.655341,821.076104,1552.59241,754.60513C1552.59241,387.15513,1254.72241,89.28513,887.27241,89.28513C519.82241,89.28513,221.95241,387.15513,221.95241,754.60513C221.8943,821.075747,231.797606,887.179804,251.33241,950.71513L1523.21241,950.71513Z" transform="matrix(1 0 0 1 0.000001 0)" opacity="0.44" stroke="none" stroke-width="1" style="fill: rgb(202, 202, 202);"/>
          <path id="exzpcD0iVqC7" d="M1378.04241,950.71513C1402.958833,888.338619,1415.721219,821.773955,1415.64241,754.60513C1415.64241,462.79513,1179.08241,226.28513,887.27241,226.28513C595.46241,226.28513,358.95241,462.79513,358.95241,754.60513C358.873601,821.773955,371.635987,888.338619,396.55241,950.71513L1378.04241,950.71513Z" opacity="0.44" stroke="none" stroke-width="1" style="fill: rgb(202, 202, 202);"/>
        </g>
      </g>
    </g>
    <g id="exzpcD0iVqC23">
      <g id="exzpcD0iVqC28">
        <path id="exzpcD0iVqC29" d="M1483.58819,1322.50188C1483.58819,1322.50188,1477.28819,1291.02188,1483.58819,1260.59188C1489.88819,1230.16188,1367.99819,1270.75188,1368.58819,1326.53188C1369.17819,1382.31188,1470.97819,1371.81188,1470.97819,1429.53188C1470.97819,1487.25188,1489.85819,1495.64188,1527.63819,1496.69188C1565.41819,1497.74188,1555.96819,1479.90188,1555.96819,1479.90188C1555.96819,1479.90188,1555.96819,1463.11188,1527.63819,1461.01188C1499.30819,1458.91188,1506.63819,1416.94188,1503.49819,1410.65188C1500.35819,1404.36188,1474.13819,1391.75188,1483.58819,1322.50188Z" fill="rgb(229,255,255)" stroke="none" stroke-width="1"/>
        <path id="exzpcD0iVqC30" d="M322.04819,1322.50188C322.04819,1322.50188,328.34819,1291.02188,322.04819,1260.59188C315.74819,1230.16188,437.63819,1270.75188,437.04819,1326.53188C436.45819,1382.31188,334.65819,1371.81188,334.65819,1429.53188C334.65819,1487.25188,315.77819,1495.64188,277.99819,1496.69188C240.21819,1497.74188,249.66819,1479.90188,249.66819,1479.90188C249.66819,1479.90188,249.66819,1463.11188,277.99819,1461.01188C306.32819,1458.91188,298.99819,1416.94188,302.13819,1410.65188C305.27819,1404.36188,331.49819,1391.75188,322.04819,1322.50188Z" fill="rgb(229,255,255)" stroke="none" stroke-width="1"/>
        <path id="exzpcD0iVqC31" d="M1104.10819,1375.18188L681.81819,1375.18188C360.93819,1375.18188,88.81819,1173.06188,88.81819,852.18188L1716.81819,852.18188C1716.81819,1173.06188,1424.98819,1375.18188,1104.10819,1375.18188Z" fill="rgb(244,255,255)" stroke="none" stroke-width="1"/>
        <rect id="exzpcD0iVqC32" width="1682" height="48" rx="24" ry="24" transform="matrix(1 0 0 1 61.8182 818.182)" fill="rgb(229,255,255)" stroke="none" stroke-width="1"/>
      </g>
    </g>
  </g>
</svg>